<svg width="60" height="60" viewBox="0 0 60 60" fill="none" xmlns="http://www.w3.org/2000/svg">
<circle cx="30" cy="30" r="30" fill="#DCFCE7"/>
<path d="M38.0193 25.0993C37.8632 25.9723 37.0291 26.554 36.1557 26.3987C35.2821 26.2433 34.6994 25.4089 34.8546 24.5352L36.437 24.8164L34.8555 24.5327L34.8555 24.531C34.8557 24.5296 34.856 24.5276 34.8563 24.5261C34.8569 24.5229 34.8581 24.5196 34.8588 24.5161C34.8601 24.509 34.8612 24.5007 34.8629 24.4922C34.8663 24.4752 34.8711 24.4557 34.8761 24.4334C34.8862 24.3887 34.8995 24.3332 34.9175 24.2688C34.9533 24.1405 35.0075 23.9742 35.0871 23.7825C35.2456 23.4001 35.5117 22.9031 35.9506 22.4094C36.8719 21.373 38.3922 20.5309 40.7233 20.5309C43.0543 20.531 44.5747 21.373 45.496 22.4094C45.9348 22.9031 46.201 23.4002 46.3595 23.7825C46.4391 23.9742 46.4933 24.1405 46.5291 24.2688C46.5471 24.3332 46.5604 24.3887 46.5705 24.4334C46.5755 24.4556 46.5795 24.4752 46.5829 24.4922C46.5846 24.5007 46.5865 24.509 46.5878 24.5161L46.5903 24.531L46.5911 24.5327C46.5913 24.5338 46.5911 24.5351 45.0088 24.8164L46.5911 24.5352C46.7465 25.409 46.1639 26.2434 45.29 26.3987C44.4167 26.554 43.5834 25.9722 43.4273 25.0993L43.4273 25.1018C43.4275 25.1031 43.4279 25.1046 43.4281 25.1059C43.4286 25.1084 43.4285 25.1111 43.4289 25.1133C43.4298 25.1177 43.4307 25.1216 43.4314 25.1249C43.4327 25.1315 43.4341 25.1362 43.4347 25.139C43.4344 25.1377 43.4336 25.1361 43.4331 25.134C43.428 25.1159 43.4146 25.0725 43.3901 25.0133C43.3403 24.8934 43.2492 24.7208 43.0931 24.5451C42.8239 24.2423 42.2015 23.7453 40.7233 23.7452C39.2449 23.7452 38.6219 24.2423 38.3527 24.5451C38.1966 24.7208 38.1055 24.8934 38.0557 25.0133C38.0312 25.0725 38.0186 25.1159 38.0135 25.134C38.013 25.1361 38.0122 25.1377 38.0119 25.139C38.0125 25.1362 38.0131 25.1314 38.0144 25.1249C38.015 25.1216 38.016 25.1177 38.0168 25.1133C38.0173 25.1111 38.018 25.1084 38.0185 25.1059C38.0187 25.1046 38.0191 25.1031 38.0193 25.1018L38.0193 25.0993Z" fill="#00C950"/>
<path d="M16.0501 25.0993C15.894 25.9723 15.0599 26.554 14.1865 26.3987C13.3128 26.2433 12.7301 25.4089 12.8854 24.5352L14.4677 24.8164L12.8862 24.5327L12.8862 24.531C12.8865 24.5296 12.8868 24.5276 12.887 24.5261C12.8876 24.5229 12.8889 24.5196 12.8895 24.5161C12.8909 24.509 12.892 24.5007 12.8937 24.4922C12.8971 24.4752 12.9019 24.4557 12.9069 24.4334C12.917 24.3887 12.9303 24.3332 12.9483 24.2688C12.9841 24.1405 13.0383 23.9742 13.1178 23.7825C13.2764 23.4001 13.5425 22.9031 13.9814 22.4094C14.9027 21.373 16.423 20.5309 18.7541 20.5309C21.0851 20.531 22.6055 21.373 23.5268 22.4094C23.9656 22.9031 24.2317 23.4002 24.3903 23.7825C24.4698 23.9742 24.524 24.1405 24.5599 24.2688C24.5778 24.3332 24.5912 24.3887 24.6012 24.4334C24.6062 24.4556 24.6102 24.4752 24.6136 24.4922C24.6153 24.5007 24.6173 24.509 24.6186 24.5161L24.6211 24.531L24.6219 24.5327C24.6221 24.5338 24.6219 24.5351 23.0396 24.8164L24.6219 24.5352C24.7772 25.409 24.1947 26.2434 23.3208 26.3987C22.4475 26.554 21.6142 25.9722 21.458 25.0993L21.458 25.1018C21.4583 25.1031 21.4586 25.1046 21.4589 25.1059C21.4593 25.1084 21.4593 25.1111 21.4597 25.1133C21.4605 25.1177 21.4615 25.1216 21.4622 25.1249C21.4635 25.1315 21.4649 25.1362 21.4655 25.139C21.4651 25.1377 21.4644 25.1361 21.4638 25.134C21.4588 25.1159 21.4454 25.0725 21.4208 25.0133C21.371 24.8934 21.28 24.7208 21.1239 24.5451C20.8547 24.2423 20.2323 23.7453 18.7541 23.7452C17.2757 23.7452 16.6526 24.2423 16.3834 24.5451C16.2273 24.7208 16.1362 24.8934 16.0865 25.0133C16.0619 25.0725 16.0494 25.1159 16.0443 25.134C16.0437 25.1361 16.043 25.1377 16.0426 25.139C16.0433 25.1362 16.0438 25.1314 16.0451 25.1249C16.0458 25.1216 16.0468 25.1177 16.0476 25.1133C16.048 25.1111 16.0488 25.1084 16.0493 25.1059C16.0495 25.1046 16.0498 25.1031 16.0501 25.1018L16.0501 25.0993Z" fill="#00C950"/>
<path d="M32.9794 33.7198C33.3881 33.2923 34.0661 33.2766 34.4939 33.685C34.9218 34.0936 34.9371 34.7716 34.5287 35.1996L33.7536 34.4601C34.5287 35.1999 34.5283 35.2007 34.5279 35.2012L34.527 35.202C34.5264 35.2027 34.5252 35.203 34.5246 35.2037C34.5232 35.2051 34.5219 35.2071 34.5204 35.2087C34.5173 35.2118 34.5142 35.2157 34.5105 35.2194C34.5032 35.2268 34.4945 35.235 34.4848 35.2442C34.4655 35.2628 34.4409 35.285 34.4121 35.3104C34.3545 35.3611 34.2778 35.4242 34.1805 35.4949C33.9853 35.6364 33.7084 35.8076 33.3401 35.9729C32.5996 36.3054 31.5122 36.6032 30.0041 36.6032C28.4958 36.6032 27.4079 36.3054 26.6674 35.9729C26.2991 35.8076 26.0222 35.6364 25.827 35.4949C25.7296 35.4242 25.653 35.3611 25.5954 35.3104C25.5667 35.2851 25.5428 35.2628 25.5234 35.2442C25.5139 35.235 25.5051 35.2268 25.4978 35.2194C25.4941 35.2157 25.4902 35.2119 25.487 35.2087C25.4855 35.2071 25.4843 35.2051 25.4829 35.2037C25.4823 35.203 25.481 35.2027 25.4804 35.202L25.4796 35.2012C25.4791 35.2007 25.4788 35.1999 26.2538 34.4601L25.4788 35.1996C25.0704 34.7715 25.0864 34.0936 25.5143 33.685C25.942 33.277 26.6186 33.2929 27.0272 33.7198L27.028 33.7189L27.0256 33.7165C27.0244 33.7153 27.0225 33.7142 27.0214 33.7132C27.0194 33.7111 27.018 33.709 27.0165 33.7074L27.0107 33.7016C27.0196 33.7095 27.0441 33.7306 27.0851 33.7603C27.1669 33.8196 27.3168 33.9159 27.545 34.0184C27.9977 34.2216 28.7853 34.4601 30.0041 34.4601C31.2227 34.46 32.0098 34.2216 32.4625 34.0184C32.6906 33.9159 32.8405 33.8196 32.9223 33.7603C32.9634 33.7305 32.9878 33.7095 32.9968 33.7016L32.9918 33.7074L32.9811 33.7181L32.9794 33.7189V33.7198Z" fill="#00C950"/>
</svg>
