<svg width="24" height="24" viewBox="0 0 24 24" fill="none" xmlns="http://www.w3.org/2000/svg">
<path d="M21 13.1436C21.4694 13.1436 21.8496 13.5237 21.8496 13.9932V17.9932C21.8493 19.567 20.5738 20.8428 19 20.8428H5C3.42615 20.8428 2.15065 19.567 2.15039 17.9932V13.9932C2.15039 13.5237 2.53056 13.1436 3 13.1436C3.46944 13.1436 3.84961 13.5237 3.84961 13.9932V17.9932C3.84987 18.6281 4.36504 19.1436 5 19.1436H19C19.635 19.1436 20.1501 18.6281 20.1504 17.9932V13.9932C20.1504 13.5237 20.5306 13.1436 21 13.1436Z" fill="#35373C"/>
<path d="M12 2.54883C12.4694 2.54883 12.8496 2.929 12.8496 3.39844V10.8398L15.6416 8.04785C15.9735 7.71591 16.5118 7.71591 16.8438 8.04785C17.1756 8.37981 17.1757 8.91809 16.8438 9.25L12.6006 13.4922C12.2687 13.824 11.7313 13.824 11.3994 13.4922L7.15625 9.25C6.82434 8.91809 6.82441 8.37981 7.15625 8.04785C7.4882 7.71591 8.02645 7.71591 8.3584 8.04785L11.1504 10.8398V3.39844C11.1504 2.929 11.5306 2.54883 12 2.54883Z" fill="#35373C"/>
</svg>
